# xmcd
#
# Track frame offsets:
#	150
#	13802
#	33818
#	53103
#	68904
#	83959
#	98510
#	116175
#	133121
#	149900
#	171992
#	187229
#	204892
#	222278
#
# Disc length: 3156 seconds
#
# Revision: 1
# Processed by: cddbd v1.5.2PL0 Copyright (c) Steve Scherf et al.
# Submitted via: audiograbber 1.83.01
#
DISCID=d40c520e
DTITLE=Sue James - Five Stars And The Moon
DYEAR=1997
DGENRE=Country
TTITLE0=Cold Hard Fax
TTITLE1=These Hands Of Mine
TTITLE2=Where Were You Last Night
TTITLE3=Distance Between Two Hearts
TTITLE4=Nothing Works Without You
TTITLE5=Five Stars And The Moon
TTITLE6=I Dream In Black and White
TTITLE7=Every Beat Of My Foolish Heart
TTITLE8=A Single Tear
TTITLE9=Love's White Heat
TTITLE10=Where You Road Leads
TTITLE11=Call 911
TTITLE12=Standing Outside The Fire
TTITLE13=Love Is Worth Anything
EXTD=
EXTT0=
EXTT1=
EXTT2=
EXTT3=
EXTT4=
EXTT5=
EXTT6=
EXTT7=
EXTT8=
EXTT9=
EXTT10=
EXTT11=
EXTT12=
EXTT13=
PLAYORDER=
